# xmcd
#
# Track frame offsets:
#	150
#	51362
#	84830
#	108025
#	133935
#	154662
#	180782
#	256050
#	290800
#
# Disc length: 4165 seconds
#
# Revision: 3
# Processed by: cddbd v1.5.2PL0 Copyright (c) Steve Scherf et al.
# Submitted via: EZCDAudioConverter 2.1.7.1
#
DISCID=6e104309
DTITLE=V/A - Jazzactuel 2/3
DYEAR=2000
DGENRE=Jazz
TTITLE0=Sun Ra and His Solor-Myth Arkestra - The Utter-Nots
TTITLE1=Arthur Jones - Brother B
TTITLE2=Burton Greene Ensemble - From ''Out Of Bartok''
TTITLE3=Art Ensemble Of Chicago - Get In Line
TTITLE4=Andrew Cyrille - Pioneering
TTITLE5=Paul Bley - Ramblin'
TTITLE6=Frank Wright - One For John - China (Part 2)
TTITLE7=Acting Trio - Cello Discordato No.9
TTITLE8=Dewey Redman - Tarik
EXTD=
EXTT0=
EXTT1=
EXTT2=
EXTT3=
EXTT4=
EXTT5=
EXTT6=
EXTT7=
EXTT8=
PLAYORDER=
